PathFileType	4	(X/Y/Z)	./trials/Ivanov/data/jump_js_1.trc
DataRate	CameraRate	NumFrames	NumMarkers	Units	OrigDataRate	OrigDataStartFrame	OrigNumFrames
400	400	4	71	mm	400	36	285
Frame#	Time	r_illiac			r_troch			r_asis			l_illiac			l_troch			l_asis			r_psis			sacrum			l_psis			r_thigh1			r_thigh2			r_thigh3			r_thigh4			rl_knee			rm_knee			r_shank1			r_shank2			r_shank3			r_shank4			r_heel			rl_ankle			rm_ankle			r_metatarsal5			r_metatarsal1			l_thigh1			l_thigh2			l_thigh3			l_thigh4			ll_knee			lm_knee			l_shank1			l_shank2			l_shank3			l_shank4			l_heel			ll_ankle			lm_ankle			l_metatarsal5			l_metatarsal1			back_down			neck			back_right			back_left			head_up			head_front			head_left			head_right			r_shoulder			r_humerus1			r_humerus2			r_humerus3			rl_elbow			rm_elbow			r_radius1			r_radius2			r_radius3			rl_wrist			rm_wrist			r_hand			l_shoulder			l_humerus1			l_humerus2			l_humerus3			ll_elbow			lm_elbow			l_radius1			l_radius2			l_radius3			ll_wrist			lm_wrist			l_hand		
		X1	Y1	Z1	X2	Y2	Z2	X3	Y3	Z3	X4	Y4	Z4	X5	Y5	Z5	X6	Y6	Z6	X7	Y7	Z7	X8	Y8	Z8	X9	Y9	Z9	X10	Y10	Z10	X11	Y11	Z11	X12	Y12	Z12	X13	Y13	Z13	X14	Y14	Z14	X15	Y15	Z15	X16	Y16	Z16	X17	Y17	Z17	X18	Y18	Z18	X19	Y19	Z19	X20	Y20	Z20	X21	Y21	Z21	X22	Y22	Z22	X23	Y23	Z23	X24	Y24	Z24	X25	Y25	Z25	X26	Y26	Z26	X27	Y27	Z27	X28	Y28	Z28	X29	Y29	Z29	X30	Y30	Z30	X31	Y31	Z31	X32	Y32	Z32	X33	Y33	Z33	X34	Y34	Z34	X35	Y35	Z35	X36	Y36	Z36	X37	Y37	Z37	X38	Y38	Z38	X39	Y39	Z39	X40	Y40	Z40	X41	Y41	Z41	X42	Y42	Z42	X43	Y43	Z43	X44	Y44	Z44	X45	Y45	Z45	X46	Y46	Z46	X47	Y47	Z47	X48	Y48	Z48	X49	Y49	Z49	X50	Y50	Z50	X51	Y51	Z51	X52	Y52	Z52	X53	Y53	Z53	X54	Y54	Z54	X55	Y55	Z55	X56	Y56	Z56	X57	Y57	Z57	X58	Y58	Z58	X59	Y59	Z59	X60	Y60	Z60	X61	Y61	Z61	X62	Y62	Z62	X63	Y63	Z63	X64	Y64	Z64	X65	Y65	Z65	X66	Y66	Z66	X67	Y67	Z67	X68	Y68	Z68	X69	Y69	Z69	X70	Y70	Z70	X71	Y71	Z71
36	0.0875	-474.566	707.254	573.582	-505.693	587.748	627.500	-443.279	651.069	543.668	-468.316	707.729	224.584	-550.473	606.597	181.611	-445.094	648.816	262.892	-585.332	747.917	451.950	-558.503	769.810	404.868	-591.940	746.024	356.006	-407.742	537.366	620.298	-384.315	608.774	598.198	-267.567	563.198	615.065	-287.523	511.096	632.563	-161.845	448.991	623.897	-150.853	450.177	478.663	-221.491	365.020	637.960	-159.232	336.959	611.068	-215.075	243.115	593.780	-266.825	267.086	623.915	-449.475	42.028	537.795	-366.000	90.927	586.590	-346.511	105.755	479.672	-232.547	39.900	600.369	-210.051	57.577	512.608	-442.317	562.464	175.288	-413.639	619.902	200.517	-301.765	573.982	174.885	-329.847	514.922	154.990	-191.226	455.131	146.500	-168.662	429.169	279.045	-260.941	388.291	140.642	-198.401	356.322	144.845	-247.508	264.208	157.063	-303.150	285.565	152.118	-454.681	50.578	238.812	-371.045	84.886	190.339	-347.558	99.364	297.896	-239.482	38.253	167.050	-212.001	50.185	261.846	-444.256	853.101	397.533	-175.944	1025.445	378.343	-293.616	959.634	497.499	-289.810	943.397	264.148	-7.693	1221.477	381.300	108.812	1124.848	379.469	3.411	1124.137	282.601	-2.821	1135.622	475.048	-69.930	946.689	568.218	-154.202	796.398	655.212	-145.984	897.574	738.058	-198.934	807.922	749.850	-275.834	752.680	802.463	-334.281	842.642	806.428	-338.751	716.640	695.715	-375.081	687.089	808.184	-419.428	667.843	717.026	-514.569	706.684	662.188	-494.297	623.610	706.739	-476.830	663.899	641.160	-78.643	950.819	198.896	-146.990	786.666	129.916	-136.364	883.838	41.751	-187.369	796.409	35.230	-278.844	744.180	-44.320	-316.490	834.052	-35.377	-349.735	731.650	94.348	-392.359	654.662	-2.754	-432.935	669.625	89.934	-500.211	719.612	133.233	-474.466	637.426	96.244	-478.144	666.785	155.400
37	0.0900	-474.578	707.249	573.672	-505.551	587.903	627.477	-443.124	651.272	543.776	-468.364	707.958	224.508	-550.543	606.890	181.609	-445.079	648.989	262.802	-585.192	748.192	452.013	-558.353	770.116	404.939	-591.847	746.301	356.065	-407.871	537.544	620.215	-384.321	608.878	598.131	-267.600	563.284	614.961	-287.524	511.234	632.436	-161.926	449.009	623.704	-150.979	450.155	478.516	-221.547	365.056	637.817	-159.329	336.981	610.947	-215.123	243.137	593.668	-266.904	267.083	623.818	-449.492	41.983	537.793	-366.041	90.933	586.578	-346.559	105.729	479.638	-232.572	39.909	600.381	-210.065	57.565	512.598	-442.484	562.644	175.372	-413.717	620.117	200.520	-302.101	573.967	175.132	-329.930	515.203	155.080	-191.370	455.212	146.652	-168.803	429.251	279.199	-261.097	388.320	140.777	-198.565	356.371	144.971	-247.618	264.257	157.141	-303.279	285.518	152.252	-454.709	50.525	238.806	-371.072	84.854	190.353	-347.604	99.325	297.912	-239.487	38.260	167.057	-212.020	50.189	261.814	-444.140	853.115	397.592	-175.957	1025.937	378.651	-293.479	959.620	497.545	-289.649	943.391	264.158	-8.128	1221.754	381.260	108.553	1125.272	379.570	3.216	1124.346	282.612	-3.152	1135.918	475.069	-69.758	946.741	568.247	-154.066	796.462	655.312	-145.859	897.704	738.103	-198.836	808.033	749.882	-275.759	752.857	802.527	-334.152	842.816	806.429	-338.612	716.821	695.729	-375.014	687.260	808.185	-419.333	668.159	716.961	-514.419	706.874	662.140	-494.154	623.886	706.651	-476.708	664.119	641.135	-78.421	950.941	198.944	-146.817	786.768	129.870	-136.311	883.998	41.755	-187.328	796.568	35.254	-278.835	744.373	-44.244	-316.484	834.282	-35.232	-349.817	731.853	94.372	-392.458	654.837	-2.727	-432.999	669.766	89.926	-500.275	719.904	133.274	-474.573	637.647	96.241	-478.312	667.016	155.371
38	0.0925	-474.491	707.308	573.802	-505.360	588.044	627.480	-443.034	651.338	543.800	-468.475	708.167	224.386	-550.666	607.226	181.569	-445.019	649.188	262.703	-585.037	748.484	452.076	-558.165	770.413	405.020	-591.726	746.601	356.094	-407.924	537.641	620.178	-384.382	608.988	598.075	-267.633	563.358	614.831	-287.577	511.301	632.273	-162.025	449.065	623.539	-151.071	450.186	478.343	-221.662	365.070	637.626	-159.476	336.980	610.782	-215.204	243.213	593.604	-266.985	267.150	623.728	-449.504	41.926	537.798	-366.089	90.902	586.557	-346.570	105.682	479.617	-232.596	39.928	600.384	-210.079	57.579	512.606	-442.457	563.069	175.368	-413.788	620.362	200.535	-301.945	574.238	175.061	-330.090	515.318	155.239	-191.522	455.270	146.805	-168.974	429.303	279.345	-261.236	388.351	140.924	-198.691	356.517	145.074	-247.736	264.308	157.233	-303.408	285.517	152.364	-454.740	50.500	238.787	-371.105	84.855	190.360	-347.645	99.292	297.923	-239.527	38.260	167.052	-212.071	50.178	261.799	-444.002	853.128	397.617	-175.848	1026.048	378.730	-293.330	959.619	497.589	-289.481	943.394	264.162	-8.548	1221.984	381.210	108.280	1125.770	379.658	2.982	1124.553	282.626	-3.359	1136.625	475.376	-69.566	946.869	568.285	-153.926	796.540	655.382	-145.677	897.793	738.145	-198.740	808.140	749.940	-275.651	753.072	802.576	-334.117	843.086	806.428	-338.482	716.993	695.763	-374.951	687.433	808.185	-419.201	668.408	716.880	-514.258	707.210	662.078	-494.041	624.148	706.597	-476.582	664.349	641.087	-78.224	951.068	199.005	-146.618	786.884	129.835	-136.260	884.172	41.755	-187.265	796.761	35.277	-278.852	744.620	-44.198	-316.451	834.572	-35.072	-349.880	732.039	94.427	-392.508	655.067	-2.732	-433.059	669.953	89.935	-500.316	720.227	133.313	-474.645	637.913	96.221	-478.387	667.271	155.357
39	0.0950	-474.459	707.361	573.997	-505.252	588.223	627.469	-443.008	651.347	543.800	-468.563	708.396	224.255	-550.846	607.720	181.385	-444.914	649.411	262.596	-584.897	748.801	452.131	-558.106	770.586	404.989	-591.620	746.943	356.144	-407.980	537.768	620.127	-384.362	609.142	598.011	-267.670	563.442	614.713	-287.646	511.386	632.129	-162.274	449.183	623.146	-151.243	450.157	478.163	-221.775	365.109	637.506	-159.571	337.051	610.653	-215.304	243.244	593.506	-267.071	267.125	623.597	-449.533	41.870	537.794	-366.108	90.880	586.529	-346.609	105.655	479.604	-232.594	39.921	600.379	-210.117	57.603	512.613	-442.474	563.307	175.344	-413.869	620.629	200.550	-302.037	574.350	175.159	-330.202	515.481	155.356	-191.688	455.372	146.997	-169.224	429.315	279.524	-261.431	388.363	141.088	-199.135	356.605	145.490	-247.864	264.430	157.341	-303.534	285.521	152.468	-454.766	50.455	238.768	-371.174	84.833	190.382	-347.711	99.254	297.939	-239.547	38.266	167.034	-212.092	50.219	261.796	-443.849	853.182	397.667	-175.746	1026.186	378.808	-293.178	959.627	497.631	-289.307	943.419	264.182	-8.967	1222.281	381.172	107.981	1126.239	379.672	2.756	1124.808	282.631	-3.694	1136.927	475.364	-67.984	947.360	568.226	-153.784	796.629	655.451	-145.527	897.926	738.184	-198.599	808.327	749.974	-275.546	753.282	802.655	-333.996	843.364	806.445	-338.305	717.210	695.792	-374.893	687.717	808.216	-418.987	668.731	716.769	-514.115	707.412	662.041	-493.896	624.454	706.550	-476.407	664.636	641.041	-78.019	951.219	199.070	-146.438	787.029	129.802	-136.183	884.360	41.768	-187.193	796.998	35.278	-278.831	744.877	-44.116	-316.492	834.843	-34.889	-349.932	732.245	94.495	-392.578	655.303	-2.715	-433.091	669.891	90.225	-500.372	720.561	133.329	-474.580	638.020	96.409	-478.450	667.576	155.350
